<svg width="426" height="94" viewBox="0 0 426 94" fill="none" xmlns="http://www.w3.org/2000/svg">
<path d="M199.846 0.277954C187.826 0.277956 177.22 2.61585 170.887 6.19483C169.589 6.13532 168.277 6.09657 166.94 6.09359H166.729C155.033 6.09359 144.667 8.31234 138.282 11.7292C135.889 11.8983 133.52 12.0721 131.17 12.2579C125.75 10.9022 119.288 10.1024 112.366 10.0869H112.186C105.197 10.0869 98.6746 10.8909 93.2009 12.2579C89.7415 11.8055 86.02 11.5578 82.1717 11.5493H81.9909C66.3054 11.5493 52.9863 15.5377 48.4815 21.0545C33.292 21.6054 20.9082 25.9195 17.5637 31.5721C7.1791 33.9224 0.189898 38.282 0.115875 43.2822C0.0726512 46.2019 2.38629 48.9169 6.38382 51.1451C5.47585 52.3433 4.98691 53.6025 4.96751 54.9134C4.86664 61.7267 17.6892 67.4205 34.4992 68.4682C34.3073 69.0323 34.2065 69.6055 34.1978 70.1893C34.0864 77.716 49.7357 83.8583 69.1235 83.9016C78.3761 83.9222 86.8014 82.5494 93.1105 80.2907C95.6196 80.6254 98.1747 80.9564 100.765 81.2694C107.061 84.8166 117.583 87.1484 129.513 87.175C135.891 87.1892 141.877 86.5414 147.051 85.3977C147.729 85.4389 148.419 85.4703 149.1 85.5102C155.376 87.8725 163.903 89.3362 173.328 89.3573C180.59 89.3735 187.352 88.5286 192.976 87.0738C194.877 87.1001 196.786 87.1251 198.701 87.1413C205.096 90.2445 214.916 92.2461 225.943 92.2707C238.341 92.2984 249.258 89.8172 255.565 86.0614C260.097 85.8478 264.567 85.6131 268.975 85.3414C273.554 86.6216 278.961 87.4814 284.825 87.7824C291.116 91.3465 301.64 93.6951 313.604 93.7218C329.452 93.7572 342.934 89.707 347.384 84.1153C349.078 84.2168 350.802 84.2689 352.567 84.2728C353.173 84.2742 353.777 84.2608 354.375 84.2503C354.974 84.2399 355.563 84.2273 356.153 84.2053C368.076 83.7616 378.298 80.9957 383.726 77.0848C385.935 77.2593 388.228 77.3496 390.567 77.3548C409.954 77.398 425.773 71.3267 425.884 63.8C425.947 59.5281 420.938 55.6995 413.047 53.1811C416.818 51.0224 419.032 48.4242 419.074 45.6219C419.135 41.4607 414.379 37.7241 406.839 35.2055C407.181 34.4547 407.37 33.6876 407.382 32.8995C407.493 25.3728 391.844 19.2192 372.456 19.176H372.245C365.233 19.176 358.715 19.9826 353.23 21.3582C352.389 21.1888 351.556 21.0185 350.699 20.852C345.795 15.6614 332.984 11.9428 317.913 11.9092H317.702C311.432 11.9092 305.562 12.5457 300.465 13.664C297.158 7.50643 283.144 2.85778 266.293 2.82018H266.082C255.216 2.82019 245.496 4.73526 239.051 7.74716C235.978 7.09578 232.62 6.62369 229.077 6.35231C222.816 2.711 212.175 0.30499 200.057 0.277954H199.846Z" fill="#E9E4C7" fill-opacity="0.6"/>
</svg>
