<svg width="329" height="113" viewBox="0 0 329 113" fill="none" xmlns="http://www.w3.org/2000/svg">
<path d="M154.336 0C145.048 1.74118e-06 136.852 2.82716 131.959 7.15515C130.956 7.08319 129.942 7.03633 128.908 7.03273H128.745C119.708 7.03273 111.698 9.71582 106.764 13.8478C104.915 14.0522 103.084 14.2624 101.269 14.4871C97.0799 12.8477 92.0867 11.8804 86.7385 11.8618H86.5988C81.1989 11.8618 76.1586 12.834 71.929 14.4871C69.2559 13.9401 66.3802 13.6405 63.4065 13.6302H63.2668C51.1463 13.6302 40.8544 18.4533 37.3735 25.1247C25.6363 25.7908 16.0671 31.0078 13.4827 37.8434C5.45835 40.6855 0.0576584 45.9575 0.000459805 52.0041C-0.03294 55.5349 1.75485 58.8181 4.84382 61.5125C4.14221 62.9615 3.7644 64.4842 3.74941 66.0695C3.67147 74.3087 13.5797 81.1941 26.5691 82.4611C26.4208 83.1433 26.3429 83.8364 26.3362 84.5423C26.2501 93.6443 38.3427 101.072 53.324 101.124C60.4736 101.149 66.984 99.4892 71.8591 96.7578C73.798 97.1625 75.7724 97.5628 77.7736 97.9413C82.6391 102.231 90.7694 105.051 99.9879 105.083C104.916 105.1 109.542 104.317 113.54 102.934C114.064 102.983 114.597 103.021 115.123 103.07C119.973 105.926 126.562 107.696 133.845 107.722C139.456 107.741 144.681 106.72 149.027 104.96C150.496 104.992 151.971 105.022 153.451 105.042C158.393 108.795 165.981 111.215 174.501 111.245C184.082 111.278 192.517 108.278 197.391 103.736C200.893 103.478 204.347 103.194 207.753 102.866C211.291 104.414 215.469 105.453 220.001 105.817C224.861 110.127 232.994 112.967 242.238 113C254.484 113.042 264.902 108.145 268.341 101.383C269.65 101.506 270.982 101.568 272.346 101.573C272.814 101.575 273.281 101.559 273.743 101.546C274.206 101.533 274.661 101.518 275.117 101.492C284.33 100.955 292.229 97.6103 296.423 92.881C298.13 93.092 299.902 93.2011 301.709 93.2074C316.69 93.2597 328.913 85.9178 329 76.8159C329.048 71.6499 325.178 67.0201 319.08 63.9747C321.994 61.3642 323.705 58.2223 323.737 54.8335C323.785 49.8015 320.11 45.2829 314.283 42.2372C314.548 41.3292 314.693 40.4015 314.702 39.4486C314.788 30.3466 302.696 22.9053 287.715 22.853H287.552C282.133 22.853 277.097 23.8284 272.858 25.4919C272.208 25.2871 271.565 25.0811 270.903 24.8798C267.113 18.6029 257.214 14.1061 245.568 14.0655H245.405C240.561 14.0655 236.025 14.8351 232.086 16.1875C229.53 8.74125 218.702 3.11974 205.68 3.07427H205.517C197.121 3.07427 189.61 5.39013 184.63 9.03236C182.255 8.24466 179.661 7.67377 176.923 7.34559C172.085 2.94223 163.862 0.0326941 154.499 0H154.336Z" fill="#7FB3FF" fill-opacity="0.3"/>
</svg>
