<svg width="446" height="102" viewBox="0 0 446 102" fill="none" xmlns="http://www.w3.org/2000/svg">
<path d="M209.221 0C196.63 1.57168e-06 185.52 2.55195 178.886 6.45863C177.527 6.39368 176.152 6.35138 174.751 6.34812H174.53C162.278 6.34813 151.42 8.77003 144.732 12.4998C142.225 12.6843 139.743 12.874 137.282 13.0769C131.604 11.597 124.835 10.7239 117.585 10.7071H117.395C110.075 10.7071 103.242 11.5847 97.5086 13.0769C93.8848 12.5831 89.9865 12.3127 85.9554 12.3033H85.766C69.3351 12.3033 55.3831 16.6569 50.6644 22.6789C34.7531 23.2802 21.7809 27.9893 18.2774 34.1595C7.39946 36.725 0.078163 41.4837 0.000623322 46.9417C-0.0446542 50.1289 2.37891 53.0924 6.56639 55.5246C5.61528 56.8325 5.10311 58.207 5.08278 59.638C4.97712 67.0751 18.409 73.2903 36.0176 74.4339C35.8167 75.0497 35.711 75.6754 35.702 76.3126C35.5853 84.5285 51.9782 91.2332 72.2872 91.2804C81.9794 91.3029 90.805 89.8044 97.4139 87.3389C100.042 87.7042 102.719 88.0655 105.432 88.4072C112.027 92.2791 123.049 94.8244 135.546 94.8535C142.227 94.869 148.497 94.1619 153.917 92.9135C154.628 92.9584 155.35 92.9928 156.064 93.0362C162.638 95.6148 171.571 97.2126 181.443 97.2356C189.05 97.2533 196.133 96.3311 202.024 94.743C204.016 94.7718 206.015 94.7991 208.022 94.8167C214.721 98.204 225.007 100.389 236.558 100.416C249.545 100.446 260.981 97.7376 267.587 93.6379C272.335 93.4048 277.017 93.1485 281.634 92.8521C286.432 94.2494 292.095 95.188 298.238 95.5166C304.827 99.407 315.852 101.971 328.384 102C344.985 102.038 359.108 97.6173 363.769 91.5137C365.544 91.6245 367.35 91.6813 369.199 91.6856C369.833 91.6871 370.466 91.6724 371.093 91.661C371.72 91.6496 372.337 91.6359 372.955 91.6119C385.445 91.1276 396.152 88.1085 401.838 83.8394C404.152 84.0299 406.554 84.1284 409.004 84.1341C429.313 84.1814 445.883 77.5541 445.999 69.3382C446.066 64.6751 440.819 60.4961 432.552 57.7471C436.502 55.3907 438.822 52.5546 438.865 49.4957C438.93 44.9535 433.948 40.8748 426.049 38.1256C426.408 37.306 426.605 36.4687 426.618 35.6084C426.734 27.3925 410.341 20.6756 390.032 20.6283H389.812C382.466 20.6283 375.639 21.5088 369.893 23.0104C369.012 22.8255 368.139 22.6396 367.242 22.4579C362.105 16.792 348.685 12.733 332.898 12.6962H332.677C326.109 12.6962 319.96 13.391 314.621 14.6117C311.157 7.89033 296.477 2.81604 278.825 2.775H278.604C267.222 2.775 257.04 4.86543 250.289 8.1531C247.07 7.44208 243.553 6.92677 239.841 6.63054C233.283 2.65582 222.135 0.0295115 209.442 0H209.221Z" fill="#7FB3FF" fill-opacity="0.3"/>
</svg>
