<svg width="315" height="105" viewBox="0 0 315 105" fill="none" xmlns="http://www.w3.org/2000/svg">
<path d="M147.797 0.739319C138.93 0.739321 131.106 3.32934 126.435 7.29429C125.477 7.22836 124.509 7.18543 123.523 7.18213H123.367C114.739 7.18213 107.093 9.64016 102.383 13.4255C100.617 13.6128 98.8702 13.8053 97.1368 14.0113C93.1381 12.5093 88.3713 11.6232 83.2658 11.6061H83.1324C77.9774 11.6061 73.1658 12.4968 69.128 14.0113C66.5761 13.5101 63.8309 13.2357 60.9921 13.2262H60.8588C49.288 13.2262 39.463 17.6447 36.14 23.7565C24.9351 24.3668 15.8 29.1461 13.3328 35.4084C5.67249 38.0121 0.516774 42.8418 0.46217 48.3812C0.430285 51.6159 2.13698 54.6236 5.08583 57.0921C4.41605 58.4195 4.05538 59.8145 4.04106 61.2668C3.96666 68.8149 13.4255 75.1228 25.8256 76.2834C25.6841 76.9084 25.6097 77.5434 25.6033 78.1901C25.5211 86.5286 37.0652 93.3333 51.3669 93.3812C58.1923 93.4041 64.4073 91.8832 69.0613 89.3809C70.9122 89.7517 72.7971 90.1184 74.7075 90.4651C79.3523 94.3948 87.1138 96.9781 95.9141 97.0076C100.619 97.0234 105.035 96.3057 108.852 95.0386C109.352 95.0843 109.86 95.1191 110.363 95.1633C114.992 97.7803 121.283 99.4019 128.235 99.4252C133.592 99.4432 138.58 98.5072 142.729 96.8955C144.131 96.9247 145.539 96.9524 146.952 96.9702C151.67 100.408 158.914 102.626 167.047 102.653C176.194 102.684 184.246 99.9347 188.899 95.7739C192.242 95.5373 195.539 95.2772 198.791 94.9763C202.169 96.3945 206.157 97.3471 210.483 97.6806C215.123 101.629 222.887 104.231 231.712 104.26C243.403 104.3 253.348 99.8127 256.631 93.618C257.88 93.7304 259.152 93.7881 260.454 93.7924C260.901 93.7939 261.347 93.7791 261.788 93.7675C262.23 93.7559 262.664 93.742 263.1 93.7177C271.895 93.2261 279.435 90.162 283.439 85.8293C285.069 86.0226 286.76 86.1226 288.485 86.1284C302.787 86.1763 314.456 79.4502 314.538 71.1118C314.585 66.3791 310.89 62.1377 305.068 59.3477C307.85 56.9562 309.483 54.0778 309.514 50.9733C309.56 46.3634 306.051 42.2238 300.489 39.4336C300.741 38.6017 300.881 37.7519 300.889 36.8789C300.971 28.5404 289.427 21.7233 275.126 21.6753H274.97C269.797 21.6753 264.99 22.569 260.943 24.0929C260.323 23.9053 259.708 23.7166 259.076 23.5322C255.458 17.7818 246.009 13.6622 234.891 13.6249H234.735C230.11 13.6249 225.78 14.33 222.02 15.569C219.581 8.74734 209.243 3.59737 196.812 3.55571H196.657C188.641 3.55571 181.471 5.67732 176.717 9.01403C174.45 8.2924 171.973 7.7694 169.359 7.46875C164.741 3.43475 156.891 0.769271 147.953 0.739319H147.797Z" fill="#E9E4C7" fill-opacity="0.6"/>
</svg>
